<svg width="629" height="285" viewBox="0 0 629 285" fill="none" xmlns="http://www.w3.org/2000/svg">
<path d="M71.28 90.08V94.88C65.84 95.04 61.68 95.68 58.8 96.8C56.08 97.76 54.24 99.68 53.28 102.56C52.32 105.28 51.84 109.6 51.84 115.52V234.56C51.84 240.32 52.32 244.64 53.28 247.52C54.24 250.4 56.08 252.32 58.8 253.28C61.68 254.08 65.84 254.48 71.28 254.48H88.8C96.32 254.48 102.4 253.68 107.04 252.08C111.84 250.48 115.6 248 118.32 244.64C121.2 241.12 123.36 236.48 124.8 230.72C126.24 224.96 127.36 217.92 128.16 209.6H133.68C133.2 214.56 132.96 221.12 132.96 229.28C132.96 232.32 133.04 236.72 133.2 242.48C133.52 248.08 134 253.92 134.64 260C126.48 259.68 117.28 259.52 107.04 259.52C96.8 259.36 87.68 259.28 79.68 259.28C76.16 259.28 71.6 259.28 66 259.28C60.56 259.28 54.64 259.36 48.24 259.52C41.84 259.52 35.36 259.6 28.8 259.76C22.24 259.76 16 259.84 10.08 260V255.2C15.52 254.88 19.6 254.24 22.32 253.28C25.2 252.32 27.12 250.4 28.08 247.52C29.04 244.64 29.52 240.32 29.52 234.56V115.52C29.52 109.6 29.04 105.28 28.08 102.56C27.12 99.68 25.2 97.76 22.32 96.8C19.6 95.68 15.52 95.04 10.08 94.88V90.08C13.44 90.24 17.84 90.4 23.28 90.56C28.72 90.72 34.56 90.8 40.8 90.8C46.4 90.8 51.92 90.72 57.36 90.56C62.96 90.4 67.6 90.24 71.28 90.08ZM202.534 87.44C210.534 87.44 216.614 88.4 220.774 90.32C224.934 92.08 228.614 94.08 231.814 96.32C233.734 97.44 235.254 98.32 236.374 98.96C237.654 99.44 238.854 99.68 239.974 99.68C241.574 99.68 242.694 98.8 243.334 97.04C244.134 95.28 244.774 92.64 245.254 89.12H250.774C250.614 91.84 250.374 95.12 250.054 98.96C249.894 102.64 249.734 107.6 249.574 113.84C249.574 119.92 249.574 128 249.574 138.08H244.054C243.574 130.4 241.894 123.04 239.014 116C236.134 108.96 231.894 103.2 226.294 98.72C220.854 94.24 213.654 92 204.694 92C196.214 92 189.174 94.56 183.574 99.68C178.134 104.8 175.414 111.52 175.414 119.84C175.414 127.04 177.254 133.12 180.934 138.08C184.614 142.88 189.494 147.28 195.574 151.28C201.814 155.12 208.534 159.28 215.734 163.76C224.054 168.88 231.414 174 237.814 179.12C244.374 184.08 249.494 189.6 253.174 195.68C257.014 201.76 258.934 209.12 258.934 217.76C258.934 228 256.614 236.48 251.974 243.2C247.334 249.92 241.174 254.96 233.494 258.32C225.814 261.68 217.334 263.36 208.054 263.36C199.574 263.36 192.854 262.4 187.894 260.48C182.934 258.56 178.694 256.56 175.174 254.48C171.654 252.24 168.934 251.12 167.014 251.12C165.414 251.12 164.214 252 163.414 253.76C162.774 255.52 162.214 258.16 161.734 261.68H156.214C156.534 258.32 156.694 254.4 156.694 249.92C156.854 245.28 156.934 239.28 156.934 231.92C157.094 224.56 157.174 215.28 157.174 204.08H162.694C163.334 213.68 165.094 222.64 167.974 230.96C171.014 239.28 175.574 246 181.654 251.12C187.894 256.08 196.134 258.56 206.374 258.56C211.654 258.56 216.614 257.52 221.254 255.44C226.054 253.2 229.974 249.76 233.014 245.12C236.054 240.32 237.574 234.16 237.574 226.64C237.574 220.08 235.974 214.4 232.774 209.6C229.734 204.64 225.414 200.08 219.814 195.92C214.214 191.6 207.654 187.2 200.134 182.72C192.614 178.08 185.574 173.36 179.014 168.56C172.454 163.76 167.174 158.24 163.174 152C159.334 145.6 157.414 137.92 157.414 128.96C157.414 119.52 159.494 111.76 163.654 105.68C167.974 99.44 173.574 94.88 180.454 92C187.334 88.96 194.694 87.44 202.534 87.44Z" fill="#C5A059"/>
<path d="M316.063 98.993L312.397 98.429V96.079H318.554C319.525 96.079 320.92 96.0163 322.737 95.891C324.554 95.7657 325.917 95.703 326.826 95.703C332.654 95.703 336.978 97.1757 339.798 100.121C342.649 103.035 344.075 107.14 344.075 112.435C344.075 116.132 343.339 119.422 341.866 122.305C340.425 125.156 338.388 127.381 335.756 128.979C333.124 130.577 330.1 131.376 326.685 131.376C325.933 131.376 324.648 131.313 322.831 131.188C320.951 131.063 319.541 131 318.601 131H312.162V128.697L316.063 128.227V98.993ZM321.045 128.368C322.142 128.619 323.552 128.744 325.275 128.744H326.685C329.035 128.713 331.103 128.117 332.889 126.958C334.706 125.799 336.116 124.075 337.119 121.788C338.122 119.469 338.623 116.665 338.623 113.375C338.623 108.424 337.542 104.664 335.38 102.095C333.249 99.5257 330.022 98.241 325.698 98.241C324.789 98.241 323.708 98.3037 322.455 98.429C321.922 98.523 321.452 98.57 321.045 98.57V128.368ZM347.826 128.697L351.351 128.415V108.534L347.967 107.688V105.15L354.453 104.304H354.547L355.581 105.15V105.996L355.44 109.662H355.581C355.895 109.129 356.459 108.44 357.273 107.594C358.088 106.748 359.138 105.98 360.422 105.291C361.707 104.57 363.101 104.21 364.605 104.21C365.232 104.21 365.749 104.288 366.156 104.445V109.709C365.937 109.552 365.577 109.411 365.075 109.286C364.605 109.129 364.073 109.051 363.477 109.051C360.877 109.051 358.464 109.85 356.239 111.448V128.368L362.208 128.744V131H347.826V128.697ZM384.454 98.993L380.647 98.429V96.079H394.136V98.429L389.483 98.993V128.227L401.609 127.804L404.382 119.908L407.249 120.331L405.604 131H380.553V128.697L384.454 128.227V98.993ZM415.746 100.215C414.743 100.215 413.991 99.933 413.49 99.369C412.989 98.805 412.738 98.0843 412.738 97.207C412.738 96.2043 413.036 95.374 413.631 94.716C414.258 94.058 415.104 93.729 416.169 93.729C417.234 93.729 418.018 94.011 418.519 94.575C419.02 95.139 419.271 95.8597 419.271 96.737C419.271 97.8023 418.958 98.6483 418.331 99.275C417.736 99.9017 416.89 100.215 415.793 100.215H415.746ZM413.866 108.534L410.294 107.688V105.197L417.579 104.304H417.673L418.754 105.15V128.321L422.514 128.697V131H410.059V128.697L413.866 128.274V108.534ZM428.671 108.534L425.287 107.688V105.15L432.008 104.304H432.149L433.136 105.15V107.124L433.089 108.252C434.217 107.249 435.706 106.341 437.554 105.526C439.403 104.711 441.173 104.304 442.865 104.304C444.839 104.304 446.359 104.68 447.424 105.432C448.521 106.184 449.289 107.343 449.727 108.91C450.166 110.445 450.385 112.529 450.385 115.161V128.321L453.675 128.65V131H442.536V128.697L445.45 128.321V115.114C445.45 113.265 445.325 111.824 445.074 110.79C444.824 109.725 444.354 108.941 443.664 108.44C442.975 107.907 441.972 107.641 440.656 107.641C439.528 107.641 438.322 107.923 437.037 108.487C435.753 109.051 434.609 109.709 433.606 110.461V128.274L436.802 128.697V131H425.71V128.697L428.671 128.274V108.534ZM456.498 118.122C456.498 115.521 457 113.171 458.002 111.072C459.036 108.973 460.54 107.312 462.514 106.09C464.52 104.837 466.917 104.21 469.705 104.21C471.053 104.21 472.212 104.335 473.183 104.586C474.155 104.837 475.314 105.181 476.661 105.62L476.473 112.858H473.418L472.384 108.064C472.196 107.187 471.006 106.748 468.812 106.748C466.619 106.748 464.88 107.641 463.595 109.427C462.342 111.182 461.715 113.688 461.715 116.947C461.715 120.644 462.42 123.464 463.83 125.407C465.272 127.318 467.136 128.274 469.423 128.274C470.739 128.274 471.977 128.07 473.136 127.663C474.327 127.256 475.345 126.77 476.191 126.206L477.084 128.086C476.238 128.963 474.985 129.762 473.324 130.483C471.695 131.172 470.034 131.517 468.342 131.517C465.773 131.517 463.595 130.937 461.809 129.778C460.055 128.619 458.723 127.036 457.814 125.031C456.937 122.994 456.498 120.691 456.498 118.122ZM481.159 117.887C481.159 115.067 481.739 112.623 482.898 110.555C484.057 108.487 485.577 106.92 487.457 105.855C489.368 104.758 491.405 104.21 493.567 104.21C497.515 104.21 500.476 105.463 502.45 107.97C504.455 110.477 505.458 113.767 505.458 117.84C505.458 120.691 504.878 123.151 503.719 125.219C502.56 127.287 501.024 128.854 499.113 129.919C497.233 130.984 495.212 131.517 493.05 131.517C489.102 131.517 486.125 130.264 484.12 127.757C482.146 125.25 481.159 121.96 481.159 117.887ZM493.332 128.838C495.494 128.838 497.155 127.945 498.314 126.159C499.473 124.373 500.053 121.725 500.053 118.216C500.053 114.738 499.52 111.981 498.455 109.944C497.39 107.907 495.682 106.889 493.332 106.889C491.17 106.889 489.494 107.782 488.303 109.568C487.144 111.354 486.564 114.002 486.564 117.511C486.564 120.989 487.112 123.746 488.209 125.783C489.306 127.82 491.013 128.838 493.332 128.838ZM513.185 95.938L509.378 95.421V93.4L516.945 92.507H517.039L518.073 93.212V128.321L522.068 128.697V131H509.378V128.697L513.185 128.274V95.938ZM528.225 108.534L524.841 107.688V105.15L531.562 104.304H531.703L532.69 105.15V107.124L532.643 108.252C533.771 107.249 535.259 106.341 537.108 105.526C538.957 104.711 540.727 104.304 542.419 104.304C544.393 104.304 545.913 104.68 546.978 105.432C548.075 106.184 548.842 107.343 549.281 108.91C549.72 110.445 549.939 112.529 549.939 115.161V128.321L553.229 128.65V131H542.09V128.697L545.004 128.321V115.114C545.004 113.265 544.879 111.824 544.628 110.79C544.377 109.725 543.907 108.941 543.218 108.44C542.529 107.907 541.526 107.641 540.21 107.641C539.082 107.641 537.876 107.923 536.591 108.487C535.306 109.051 534.163 109.709 533.16 110.461V128.274L536.356 128.697V131H525.264V128.697L528.225 128.274V108.534ZM323.63 190.517C322.001 190.517 320.544 190.376 319.259 190.094C317.974 189.812 316.564 189.436 315.029 188.966C314.089 188.621 313.384 188.433 312.914 188.402L313.29 179.895H316.298L317.097 186.005C317.63 186.506 318.491 186.961 319.682 187.368C320.904 187.744 322.236 187.932 323.677 187.932C326.058 187.932 327.86 187.399 329.082 186.334C330.335 185.269 330.962 183.796 330.962 181.916C330.962 180.694 330.617 179.644 329.928 178.767C329.27 177.89 328.377 177.138 327.249 176.511C326.152 175.884 324.633 175.148 322.69 174.302C320.935 173.519 319.4 172.72 318.084 171.905C316.799 171.09 315.671 170.009 314.7 168.662C313.76 167.283 313.29 165.638 313.29 163.727C313.29 162.004 313.744 160.468 314.653 159.121C315.593 157.742 316.925 156.661 318.648 155.878C320.403 155.095 322.439 154.703 324.758 154.703C326.199 154.703 327.468 154.813 328.565 155.032C329.693 155.251 330.962 155.549 332.372 155.925C332.999 156.144 333.531 156.285 333.97 156.348L333.688 164.244H330.821L329.881 158.463C329.568 158.15 328.91 157.852 327.907 157.57C326.936 157.288 325.87 157.147 324.711 157.147C322.549 157.147 320.904 157.601 319.776 158.51C318.679 159.419 318.131 160.735 318.131 162.458C318.131 163.711 318.46 164.761 319.118 165.607C319.807 166.453 320.653 167.174 321.656 167.769C322.659 168.364 324.257 169.179 326.45 170.213C328.487 171.184 330.147 172.062 331.432 172.845C332.717 173.628 333.813 174.662 334.722 175.947C335.662 177.2 336.132 178.704 336.132 180.459C336.132 182.12 335.662 183.718 334.722 185.253C333.813 186.788 332.403 188.057 330.492 189.06C328.612 190.031 326.325 190.517 323.63 190.517ZM365.448 176.041C365.448 178.704 364.9 181.148 363.803 183.373C362.707 185.566 361.14 187.305 359.103 188.59C357.067 189.875 354.685 190.517 351.959 190.517C351.207 190.517 350.393 190.454 349.515 190.329C348.638 190.204 347.933 190.047 347.4 189.859L347.541 193.807V198.554L352.429 199.071V201.374H339.316V199.071L342.7 198.554V167.534L339.269 166.688V164.15L345.943 163.304H346.037L347.024 164.15V166.923C347.964 165.889 349.124 165.012 350.502 164.291C351.912 163.57 353.479 163.21 355.202 163.21C357.051 163.21 358.743 163.664 360.278 164.573C361.845 165.482 363.098 166.892 364.038 168.803C364.978 170.714 365.448 173.127 365.448 176.041ZM353.275 166.5C352.085 166.5 350.972 166.751 349.938 167.252C348.904 167.753 348.105 168.302 347.541 168.897V186.616C347.761 186.992 348.309 187.337 349.186 187.65C350.095 187.932 351.082 188.073 352.147 188.073C354.56 188.073 356.503 187.117 357.975 185.206C359.479 183.295 360.231 180.412 360.231 176.558C360.231 173.174 359.573 170.652 358.257 168.991C356.973 167.33 355.312 166.5 353.275 166.5ZM369.534 176.887C369.534 174.067 370.114 171.623 371.273 169.555C372.432 167.487 373.952 165.92 375.832 164.855C377.743 163.758 379.78 163.21 381.942 163.21C385.89 163.21 388.851 164.463 390.825 166.97C392.83 169.477 393.833 172.767 393.833 176.84C393.833 179.691 393.253 182.151 392.094 184.219C390.935 186.287 389.399 187.854 387.488 188.919C385.608 189.984 383.587 190.517 381.425 190.517C377.477 190.517 374.5 189.264 372.495 186.757C370.521 184.25 369.534 180.96 369.534 176.887ZM381.707 187.838C383.869 187.838 385.53 186.945 386.689 185.159C387.848 183.373 388.428 180.725 388.428 177.216C388.428 173.738 387.895 170.981 386.83 168.944C385.765 166.907 384.057 165.889 381.707 165.889C379.545 165.889 377.869 166.782 376.678 168.568C375.519 170.354 374.939 173.002 374.939 176.511C374.939 179.989 375.487 182.746 376.584 184.783C377.681 186.82 379.388 187.838 381.707 187.838ZM402.5 186.24C402.813 186.71 403.471 187.133 404.474 187.509C405.508 187.885 406.589 188.073 407.717 188.073C409.503 188.073 410.819 187.728 411.665 187.039C412.511 186.35 412.934 185.394 412.934 184.172C412.934 183.326 412.667 182.59 412.135 181.963C411.602 181.336 410.85 180.788 409.879 180.318C408.939 179.817 407.576 179.221 405.79 178.532C403.377 177.623 401.607 176.542 400.479 175.289C399.382 174.004 398.834 172.328 398.834 170.26C398.834 168.881 399.241 167.675 400.056 166.641C400.902 165.607 402.045 164.808 403.487 164.244C404.959 163.649 406.589 163.351 408.375 163.351C409.816 163.351 411.069 163.461 412.135 163.68C413.231 163.899 414.109 164.119 414.767 164.338C415.425 164.557 415.863 164.698 416.083 164.761V170.589H413.216L412.276 167.111C412.088 166.735 411.586 166.422 410.772 166.171C409.957 165.889 409.048 165.748 408.046 165.748C406.636 165.748 405.492 166.061 404.615 166.688C403.769 167.315 403.346 168.161 403.346 169.226C403.346 170.166 403.565 170.949 404.004 171.576C404.474 172.171 405.053 172.657 405.743 173.033C406.432 173.409 407.372 173.848 408.563 174.349L409.503 174.725C411.257 175.414 412.683 176.072 413.78 176.699C414.876 177.326 415.785 178.156 416.506 179.19C417.258 180.193 417.634 181.43 417.634 182.903C417.634 185.222 416.725 187.07 414.908 188.449C413.122 189.828 410.662 190.517 407.529 190.517C405.993 190.517 404.38 190.313 402.688 189.906C401.027 189.467 399.664 189.029 398.599 188.59V182.574H401.654L402.5 186.24ZM427.404 159.215C426.401 159.215 425.649 158.933 425.148 158.369C424.647 157.805 424.396 157.084 424.396 156.207C424.396 155.204 424.694 154.374 425.289 153.716C425.916 153.058 426.762 152.729 427.827 152.729C428.892 152.729 429.676 153.011 430.177 153.575C430.678 154.139 430.929 154.86 430.929 155.737C430.929 156.802 430.616 157.648 429.989 158.275C429.394 158.902 428.548 159.215 427.451 159.215H427.404ZM425.524 167.534L421.952 166.688V164.197L429.237 163.304H429.331L430.412 164.15V187.321L434.172 187.697V190H421.717V187.697L425.524 187.274V167.534ZM445.547 190.47C443.761 190.47 442.429 190.063 441.552 189.248C440.674 188.433 440.236 187.039 440.236 185.065V167.017H436.852V164.902C437.008 164.871 437.447 164.761 438.168 164.573C438.888 164.385 439.374 164.213 439.625 164.056C440.126 163.774 440.518 163.21 440.8 162.364C441.05 161.769 441.348 160.813 441.693 159.497C442.037 158.181 442.241 157.398 442.304 157.147H445.077L445.171 163.915H453.02V167.017H445.171V181.446C445.171 183.232 445.218 184.485 445.312 185.206C445.437 185.927 445.672 186.397 446.017 186.616C446.393 186.835 447.019 186.945 447.897 186.945C448.743 186.945 449.667 186.835 450.67 186.616C451.704 186.397 452.503 186.162 453.067 185.911L453.772 188.026C453.02 188.59 451.798 189.138 450.106 189.671C448.445 190.204 446.925 190.47 445.547 190.47ZM456.649 176.887C456.649 174.067 457.229 171.623 458.388 169.555C459.548 167.487 461.067 165.92 462.947 164.855C464.859 163.758 466.895 163.21 469.057 163.21C473.005 163.21 475.966 164.463 477.94 166.97C479.946 169.477 480.948 172.767 480.948 176.84C480.948 179.691 480.369 182.151 479.209 184.219C478.05 186.287 476.515 187.854 474.603 188.919C472.723 189.984 470.702 190.517 468.54 190.517C464.592 190.517 461.616 189.264 459.61 186.757C457.636 184.25 456.649 180.96 456.649 176.887ZM468.822 187.838C470.984 187.838 472.645 186.945 473.804 185.159C474.964 183.373 475.543 180.725 475.543 177.216C475.543 173.738 475.011 170.981 473.945 168.944C472.88 166.907 471.172 165.889 468.822 165.889C466.66 165.889 464.984 166.782 463.793 168.568C462.634 170.354 462.054 173.002 462.054 176.511C462.054 179.989 462.603 182.746 463.699 184.783C464.796 186.82 466.504 187.838 468.822 187.838Z" fill="white"/>
<path d="M311.761 253V238.455H316.676C317.817 238.455 318.75 238.661 319.474 239.072C320.204 239.48 320.743 240.031 321.094 240.727C321.444 241.423 321.619 242.2 321.619 243.057C321.619 243.914 321.444 244.693 321.094 245.393C320.748 246.094 320.213 246.653 319.489 247.07C318.764 247.482 317.836 247.688 316.705 247.688H313.182V246.125H316.648C317.429 246.125 318.056 245.99 318.53 245.72C319.003 245.45 319.347 245.086 319.56 244.626C319.777 244.162 319.886 243.639 319.886 243.057C319.886 242.474 319.777 241.954 319.56 241.494C319.347 241.035 319.001 240.675 318.523 240.415C318.045 240.15 317.41 240.017 316.619 240.017H313.523V253H311.761ZM324.457 253V238.455H333.235V240.017H326.218V244.932H332.781V246.494H326.218V251.438H333.349V253H324.457ZM336.41 253V238.455H341.325C342.461 238.455 343.394 238.649 344.123 239.037C344.852 239.42 345.392 239.948 345.742 240.621C346.093 241.293 346.268 242.058 346.268 242.915C346.268 243.772 346.093 244.532 345.742 245.195C345.392 245.857 344.854 246.378 344.13 246.757C343.406 247.131 342.48 247.318 341.353 247.318H337.376V245.727H341.296C342.073 245.727 342.698 245.614 343.171 245.386C343.649 245.159 343.995 244.837 344.208 244.42C344.426 243.999 344.535 243.497 344.535 242.915C344.535 242.332 344.426 241.823 344.208 241.388C343.99 240.952 343.642 240.616 343.164 240.379C342.686 240.138 342.054 240.017 341.268 240.017H338.171V253H336.41ZM343.256 246.466L346.836 253H344.79L341.268 246.466H343.256ZM350.964 238.455V253H349.203V238.455H350.964ZM349.316 236.977L351.049 233.682H353.01L350.794 236.977H349.316ZM366.2 243H364.439C364.335 242.493 364.152 242.048 363.892 241.665C363.636 241.281 363.324 240.959 362.955 240.699C362.59 240.434 362.185 240.235 361.74 240.102C361.295 239.97 360.831 239.903 360.348 239.903C359.467 239.903 358.67 240.126 357.955 240.571C357.244 241.016 356.679 241.672 356.257 242.538C355.84 243.405 355.632 244.468 355.632 245.727C355.632 246.987 355.84 248.05 356.257 248.916C356.679 249.783 357.244 250.438 357.955 250.884C358.67 251.329 359.467 251.551 360.348 251.551C360.831 251.551 361.295 251.485 361.74 251.352C362.185 251.22 362.59 251.023 362.955 250.763C363.324 250.498 363.636 250.173 363.892 249.79C364.152 249.402 364.335 248.956 364.439 248.455H366.2C366.068 249.198 365.826 249.863 365.476 250.45C365.125 251.037 364.69 251.537 364.169 251.949C363.648 252.356 363.063 252.666 362.415 252.879C361.771 253.092 361.082 253.199 360.348 253.199C359.107 253.199 358.004 252.896 357.038 252.29C356.072 251.684 355.313 250.822 354.759 249.705C354.205 248.587 353.928 247.261 353.928 245.727C353.928 244.193 354.205 242.867 354.759 241.75C355.313 240.633 356.072 239.771 357.038 239.165C358.004 238.559 359.107 238.256 360.348 238.256C361.082 238.256 361.771 238.362 362.415 238.575C363.063 238.788 363.648 239.101 364.169 239.513C364.69 239.92 365.125 240.417 365.476 241.004C365.826 241.587 366.068 242.252 366.2 243ZM370.808 238.455V253H369.047V238.455H370.808ZM374.936 253H373.089L378.43 238.455H380.249L385.589 253H383.743L379.396 240.756H379.283L374.936 253ZM375.618 247.318H383.061V248.881H375.618V247.318ZM399.048 238.455H400.81V248.852C400.81 249.78 400.639 250.569 400.298 251.217C399.957 251.866 399.477 252.358 398.857 252.695C398.236 253.031 397.505 253.199 396.662 253.199C395.866 253.199 395.159 253.054 394.538 252.766C393.918 252.472 393.43 252.055 393.075 251.516C392.72 250.976 392.543 250.334 392.543 249.591H394.276C394.276 250.003 394.377 250.363 394.581 250.67C394.789 250.973 395.073 251.21 395.433 251.381C395.793 251.551 396.203 251.636 396.662 251.636C397.169 251.636 397.599 251.53 397.955 251.317C398.31 251.104 398.58 250.791 398.764 250.379C398.954 249.963 399.048 249.454 399.048 248.852V238.455ZM413.885 238.455H415.646V248.085C415.646 249.08 415.412 249.967 414.943 250.749C414.479 251.525 413.823 252.138 412.976 252.588C412.128 253.033 411.134 253.256 409.993 253.256C408.852 253.256 407.857 253.033 407.01 252.588C406.162 252.138 405.504 251.525 405.036 250.749C404.571 249.967 404.339 249.08 404.339 248.085V238.455H406.101V247.943C406.101 248.653 406.257 249.286 406.57 249.839C406.882 250.389 407.327 250.822 407.905 251.139C408.487 251.452 409.183 251.608 409.993 251.608C410.803 251.608 411.499 251.452 412.081 251.139C412.663 250.822 413.108 250.389 413.416 249.839C413.729 249.286 413.885 248.653 413.885 247.943V238.455ZM423.652 253H419.164V238.455H423.851C425.262 238.455 426.47 238.746 427.473 239.328C428.477 239.906 429.247 240.737 429.782 241.821C430.317 242.901 430.584 244.193 430.584 245.699C430.584 247.214 430.314 248.518 429.775 249.612C429.235 250.701 428.449 251.539 427.417 252.126C426.384 252.709 425.13 253 423.652 253ZM420.925 251.438H423.539C424.741 251.438 425.738 251.205 426.529 250.741C427.319 250.277 427.909 249.617 428.297 248.76C428.685 247.903 428.88 246.883 428.88 245.699C428.88 244.525 428.688 243.514 428.304 242.666C427.921 241.814 427.348 241.161 426.586 240.706C425.823 240.247 424.874 240.017 423.738 240.017H420.925V251.438ZM435.3 238.455V253H433.539V238.455H435.3ZM450.536 243H448.775C448.671 242.493 448.488 242.048 448.228 241.665C447.972 241.281 447.66 240.959 447.29 240.699C446.926 240.434 446.521 240.235 446.076 240.102C445.631 239.97 445.167 239.903 444.684 239.903C443.803 239.903 443.005 240.126 442.29 240.571C441.58 241.016 441.014 241.672 440.593 242.538C440.176 243.405 439.968 244.468 439.968 245.727C439.968 246.987 440.176 248.05 440.593 248.916C441.014 249.783 441.58 250.438 442.29 250.884C443.005 251.329 443.803 251.551 444.684 251.551C445.167 251.551 445.631 251.485 446.076 251.352C446.521 251.22 446.926 251.023 447.29 250.763C447.66 250.498 447.972 250.173 448.228 249.79C448.488 249.402 448.671 248.956 448.775 248.455H450.536C450.404 249.198 450.162 249.863 449.812 250.45C449.461 251.037 449.026 251.537 448.505 251.949C447.984 252.356 447.399 252.666 446.751 252.879C446.107 253.092 445.418 253.199 444.684 253.199C443.443 253.199 442.34 252.896 441.374 252.29C440.408 251.684 439.648 250.822 439.094 249.705C438.54 248.587 438.263 247.261 438.263 245.727C438.263 244.193 438.54 242.867 439.094 241.75C439.648 240.633 440.408 239.771 441.374 239.165C442.34 238.559 443.443 238.256 444.684 238.256C445.418 238.256 446.107 238.362 446.751 238.575C447.399 238.788 447.984 239.101 448.505 239.513C449.026 239.92 449.461 240.417 449.812 241.004C450.162 241.587 450.404 242.252 450.536 243ZM455.144 238.455V253H453.382V238.455H455.144ZM459.272 253H457.425L462.766 238.455H464.585L469.925 253H468.079L463.732 240.756H463.619L459.272 253ZM459.954 247.318H467.397V248.881H459.954V247.318ZM472.191 253V238.455H473.952V251.438H480.714V253H472.191ZM489.066 253V238.455H497.844V240.017H490.827V244.932H497.39V246.494H490.827V251.438H497.958V253H489.066ZM312.358 277H310.511L315.852 262.455H317.67L323.011 277H321.165L316.818 264.756H316.705L312.358 277ZM313.04 271.318H320.483V272.881H313.04V271.318ZM333.232 266.091C333.146 265.371 332.801 264.812 332.195 264.415C331.589 264.017 330.845 263.818 329.964 263.818C329.321 263.818 328.757 263.922 328.274 264.131C327.796 264.339 327.422 264.625 327.152 264.99C326.887 265.355 326.754 265.769 326.754 266.233C326.754 266.621 326.847 266.955 327.031 267.234C327.221 267.509 327.462 267.739 327.756 267.923C328.049 268.103 328.357 268.252 328.679 268.371C329.001 268.484 329.297 268.577 329.567 268.648L331.044 269.045C331.423 269.145 331.844 269.282 332.308 269.457C332.777 269.633 333.224 269.872 333.651 270.175C334.081 270.473 334.437 270.857 334.716 271.325C334.995 271.794 335.135 272.369 335.135 273.051C335.135 273.837 334.929 274.547 334.517 275.182C334.11 275.816 333.513 276.321 332.727 276.695C331.946 277.069 330.997 277.256 329.879 277.256C328.838 277.256 327.936 277.088 327.173 276.751C326.416 276.415 325.819 275.946 325.384 275.345C324.953 274.744 324.709 274.045 324.652 273.25H326.47C326.518 273.799 326.702 274.254 327.024 274.614C327.351 274.969 327.763 275.234 328.26 275.409C328.762 275.58 329.302 275.665 329.879 275.665C330.552 275.665 331.155 275.556 331.69 275.338C332.225 275.116 332.649 274.808 332.962 274.415C333.274 274.017 333.43 273.553 333.43 273.023C333.43 272.54 333.295 272.147 333.026 271.844C332.756 271.541 332.401 271.295 331.96 271.105C331.52 270.916 331.044 270.75 330.533 270.608L328.743 270.097C327.607 269.77 326.707 269.304 326.044 268.697C325.381 268.091 325.05 267.298 325.05 266.318C325.05 265.504 325.27 264.794 325.71 264.188C326.155 263.577 326.752 263.103 327.5 262.767C328.253 262.426 329.093 262.256 330.021 262.256C330.959 262.256 331.792 262.424 332.521 262.76C333.25 263.091 333.828 263.546 334.254 264.124C334.685 264.701 334.912 265.357 334.936 266.091H333.232ZM345.985 266.091C345.9 265.371 345.555 264.812 344.949 264.415C344.342 264.017 343.599 263.818 342.718 263.818C342.074 263.818 341.511 263.922 341.028 264.131C340.55 264.339 340.176 264.625 339.906 264.99C339.641 265.355 339.508 265.769 339.508 266.233C339.508 266.621 339.6 266.955 339.785 267.234C339.975 267.509 340.216 267.739 340.51 267.923C340.803 268.103 341.111 268.252 341.433 268.371C341.755 268.484 342.051 268.577 342.321 268.648L343.798 269.045C344.177 269.145 344.598 269.282 345.062 269.457C345.531 269.633 345.978 269.872 346.404 270.175C346.835 270.473 347.19 270.857 347.47 271.325C347.749 271.794 347.889 272.369 347.889 273.051C347.889 273.837 347.683 274.547 347.271 275.182C346.864 275.816 346.267 276.321 345.481 276.695C344.7 277.069 343.751 277.256 342.633 277.256C341.592 277.256 340.69 277.088 339.927 276.751C339.17 276.415 338.573 275.946 338.137 275.345C337.707 274.744 337.463 274.045 337.406 273.25H339.224C339.271 273.799 339.456 274.254 339.778 274.614C340.105 274.969 340.517 275.234 341.014 275.409C341.516 275.58 342.056 275.665 342.633 275.665C343.306 275.665 343.909 275.556 344.444 275.338C344.979 275.116 345.403 274.808 345.716 274.415C346.028 274.017 346.184 273.553 346.184 273.023C346.184 272.54 346.049 272.147 345.779 271.844C345.51 271.541 345.154 271.295 344.714 271.105C344.274 270.916 343.798 270.75 343.287 270.608L341.497 270.097C340.36 269.77 339.461 269.304 338.798 268.697C338.135 268.091 337.804 267.298 337.804 266.318C337.804 265.504 338.024 264.794 338.464 264.188C338.909 263.577 339.506 263.103 340.254 262.767C341.007 262.426 341.847 262.256 342.775 262.256C343.713 262.256 344.546 262.424 345.275 262.76C346.004 263.091 346.582 263.546 347.008 264.124C347.439 264.701 347.666 265.357 347.69 266.091H345.985ZM352.546 262.455V277H350.785V262.455H352.546ZM364.032 266.091C363.947 265.371 363.601 264.812 362.995 264.415C362.389 264.017 361.646 263.818 360.765 263.818C360.121 263.818 359.558 263.922 359.075 264.131C358.597 264.339 358.223 264.625 357.953 264.99C357.688 265.355 357.555 265.769 357.555 266.233C357.555 266.621 357.647 266.955 357.832 267.234C358.021 267.509 358.263 267.739 358.556 267.923C358.85 268.103 359.158 268.252 359.48 268.371C359.802 268.484 360.098 268.577 360.368 268.648L361.845 269.045C362.224 269.145 362.645 269.282 363.109 269.457C363.578 269.633 364.025 269.872 364.451 270.175C364.882 270.473 365.237 270.857 365.517 271.325C365.796 271.794 365.936 272.369 365.936 273.051C365.936 273.837 365.73 274.547 365.318 275.182C364.911 275.816 364.314 276.321 363.528 276.695C362.747 277.069 361.797 277.256 360.68 277.256C359.638 277.256 358.736 277.088 357.974 276.751C357.217 276.415 356.62 275.946 356.184 275.345C355.753 274.744 355.51 274.045 355.453 273.25H357.271C357.318 273.799 357.503 274.254 357.825 274.614C358.152 274.969 358.564 275.234 359.061 275.409C359.563 275.58 360.102 275.665 360.68 275.665C361.352 275.665 361.956 275.556 362.491 275.338C363.026 275.116 363.45 274.808 363.762 274.415C364.075 274.017 364.231 273.553 364.231 273.023C364.231 272.54 364.096 272.147 363.826 271.844C363.556 271.541 363.201 271.295 362.761 271.105C362.321 270.916 361.845 270.75 361.333 270.608L359.544 270.097C358.407 269.77 357.508 269.304 356.845 268.697C356.182 268.091 355.85 267.298 355.85 266.318C355.85 265.504 356.071 264.794 356.511 264.188C356.956 263.577 357.553 263.103 358.301 262.767C359.054 262.426 359.894 262.256 360.822 262.256C361.76 262.256 362.593 262.424 363.322 262.76C364.051 263.091 364.629 263.546 365.055 264.124C365.486 264.701 365.713 265.357 365.737 266.091H364.032ZM368.036 264.017V262.455H378.945V264.017H374.371V277H372.61V264.017H368.036ZM381.664 277V262.455H390.442V264.017H383.425V268.932H389.988V270.494H383.425V275.438H390.556V277H381.664ZM387.516 261.148L386.039 259.159L384.561 261.148H382.971V261.034L385.272 258.08H386.806L389.107 261.034V261.148H387.516ZM405.151 262.455V277H403.446L395.52 265.58H395.378V277H393.617V262.455H395.321L403.276 273.903H403.418V262.455H405.151ZM420.38 267H418.619C418.514 266.493 418.332 266.048 418.072 265.665C417.816 265.281 417.504 264.959 417.134 264.699C416.77 264.434 416.365 264.235 415.92 264.102C415.475 263.97 415.011 263.903 414.528 263.903C413.647 263.903 412.849 264.126 412.134 264.571C411.424 265.016 410.858 265.672 410.437 266.538C410.02 267.405 409.812 268.468 409.812 269.727C409.812 270.987 410.02 272.05 410.437 272.916C410.858 273.783 411.424 274.438 412.134 274.884C412.849 275.329 413.647 275.551 414.528 275.551C415.011 275.551 415.475 275.485 415.92 275.352C416.365 275.22 416.77 275.023 417.134 274.763C417.504 274.498 417.816 274.173 418.072 273.79C418.332 273.402 418.514 272.956 418.619 272.455H420.38C420.247 273.198 420.006 273.863 419.656 274.45C419.305 275.037 418.87 275.537 418.349 275.949C417.828 276.356 417.243 276.666 416.594 276.879C415.951 277.092 415.262 277.199 414.528 277.199C413.287 277.199 412.184 276.896 411.218 276.29C410.252 275.684 409.492 274.822 408.938 273.705C408.384 272.587 408.107 271.261 408.107 269.727C408.107 268.193 408.384 266.867 408.938 265.75C409.492 264.633 410.252 263.771 411.218 263.165C412.184 262.559 413.287 262.256 414.528 262.256C415.262 262.256 415.951 262.362 416.594 262.575C417.243 262.788 417.828 263.101 418.349 263.513C418.87 263.92 419.305 264.417 419.656 265.004C420.006 265.587 420.247 266.252 420.38 267ZM424.988 262.455V277H423.226V262.455H424.988ZM429.116 277H427.269L432.61 262.455H434.428L439.769 277H437.923L433.576 264.756H433.462L429.116 277ZM429.798 271.318H437.241V272.881H429.798V271.318ZM446.864 264.017V262.455H457.773V264.017H453.2V277H451.438V264.017H446.864ZM460.492 277V262.455H469.27V264.017H462.253V268.932H468.816V270.494H462.253V275.438H469.384V277H460.492ZM464.1 260.977L465.833 257.682H467.793L465.577 260.977H464.1ZM484.15 267H482.388C482.284 266.493 482.102 266.048 481.841 265.665C481.586 265.281 481.273 264.959 480.904 264.699C480.539 264.434 480.134 264.235 479.689 264.102C479.244 263.97 478.78 263.903 478.297 263.903C477.417 263.903 476.619 264.126 475.904 264.571C475.194 265.016 474.628 265.672 474.206 266.538C473.79 267.405 473.581 268.468 473.581 269.727C473.581 270.987 473.79 272.05 474.206 272.916C474.628 273.783 475.194 274.438 475.904 274.884C476.619 275.329 477.417 275.551 478.297 275.551C478.78 275.551 479.244 275.485 479.689 275.352C480.134 275.22 480.539 275.023 480.904 274.763C481.273 274.498 481.586 274.173 481.841 273.79C482.102 273.402 482.284 272.956 482.388 272.455H484.15C484.017 273.198 483.775 273.863 483.425 274.45C483.075 275.037 482.639 275.537 482.118 275.949C481.597 276.356 481.013 276.666 480.364 276.879C479.72 277.092 479.031 277.199 478.297 277.199C477.057 277.199 475.953 276.896 474.988 276.29C474.022 275.684 473.262 274.822 472.708 273.705C472.154 272.587 471.877 271.261 471.877 269.727C471.877 268.193 472.154 266.867 472.708 265.75C473.262 264.633 474.022 263.771 474.988 263.165C475.953 262.559 477.057 262.256 478.297 262.256C479.031 262.256 479.72 262.362 480.364 262.575C481.013 262.788 481.597 263.101 482.118 263.513C482.639 263.92 483.075 264.417 483.425 265.004C483.775 265.587 484.017 266.252 484.15 267ZM498.53 262.455V277H496.825L488.899 265.58H488.757V277H486.996V262.455H488.7L496.655 273.903H496.797V262.455H498.53ZM503.816 262.455V277H502.054V262.455H503.816ZM519.052 267H517.29C517.186 266.493 517.004 266.048 516.744 265.665C516.488 265.281 516.175 264.959 515.806 264.699C515.442 264.434 515.037 264.235 514.592 264.102C514.147 263.97 513.683 263.903 513.2 263.903C512.319 263.903 511.521 264.126 510.806 264.571C510.096 265.016 509.53 265.672 509.109 266.538C508.692 267.405 508.484 268.468 508.484 269.727C508.484 270.987 508.692 272.05 509.109 272.916C509.53 273.783 510.096 274.438 510.806 274.884C511.521 275.329 512.319 275.551 513.2 275.551C513.683 275.551 514.147 275.485 514.592 275.352C515.037 275.22 515.442 275.023 515.806 274.763C516.175 274.498 516.488 274.173 516.744 273.79C517.004 273.402 517.186 272.956 517.29 272.455H519.052C518.919 273.198 518.678 273.863 518.327 274.45C517.977 275.037 517.541 275.537 517.021 275.949C516.5 276.356 515.915 276.666 515.266 276.879C514.622 277.092 513.933 277.199 513.2 277.199C511.959 277.199 510.856 276.896 509.89 276.29C508.924 275.684 508.164 274.822 507.61 273.705C507.056 272.587 506.779 271.261 506.779 269.727C506.779 268.193 507.056 266.867 507.61 265.75C508.164 264.633 508.924 263.771 509.89 263.165C510.856 262.559 511.959 262.256 513.2 262.256C513.933 262.256 514.622 262.362 515.266 262.575C515.915 262.788 516.5 263.101 517.021 263.513C517.541 263.92 517.977 264.417 518.327 265.004C518.678 265.587 518.919 266.252 519.052 267ZM522.495 277H520.648L525.989 262.455H527.807L533.148 277H531.301L526.955 264.756H526.841L522.495 277ZM523.176 271.318H530.62V272.881H523.176V271.318Z" fill="#C5A059"/>
</svg>
